<svg width="59" height="50" viewBox="0 0 59 50" fill="none" xmlns="http://www.w3.org/2000/svg">
<g filter="url(#filter0_d_278_651)">
<path d="M39.6172 37.1407C39.6172 37.1407 40.2098 37.998 42.0972 39.201C42.2384 39.2899 42.3866 39.3817 42.5426 39.4746C43.1352 39.8291 43.8315 40.2064 44.6542 40.5975L44.8518 35.5605C44.8518 35.5605 47.4197 35.758 49.6913 34.7704C49.4295 34.64 48.3016 34.0326 46.6799 32.7753C46.5347 32.6637 46.3836 32.5452 46.2315 32.4217C45.5145 31.8449 44.7155 31.1506 43.8611 30.3259C42.5802 32.4988 39.6172 37.1407 39.6172 37.1407Z" fill="url(#paint0_linear_278_651)"/>
<path d="M39.6172 37.1407C39.6172 37.1407 40.2098 37.998 42.0972 39.201C42.2384 39.2899 42.3866 39.3817 42.5426 39.4746C43.1352 39.8291 43.8315 40.2064 44.6542 40.5975L44.8518 35.5605C44.8518 35.5605 47.4197 35.758 49.6913 34.7704C49.4295 34.64 48.3016 34.0326 46.6799 32.7753C46.5347 32.6637 46.3836 32.5452 46.2315 32.4217C45.5145 31.8449 44.7155 31.1506 43.8611 30.3259C42.5802 32.4988 39.6172 37.1407 39.6172 37.1407Z" fill="url(#paint1_linear_278_651)"/>
<path d="M19.0741 36.8444C19.0741 36.8444 18.4815 37.7016 16.5941 38.9046C16.4528 38.9935 16.3047 39.0853 16.1486 39.1782C15.556 39.5328 14.8647 39.91 14.037 40.3011L13.8395 35.2641C13.8395 35.2641 11.2716 35.4616 9 34.474C9.26173 34.3436 10.3896 33.7362 12.0114 32.4789C12.1565 32.3673 12.3077 32.2488 12.4598 32.1253C13.1768 31.5486 13.9758 30.8542 14.8301 30.0295C16.1111 32.2024 19.0741 36.8444 19.0741 36.8444Z" fill="url(#paint2_linear_278_651)"/>
<path d="M19.0741 36.8444C19.0741 36.8444 18.4815 37.7016 16.5941 38.9046C16.4528 38.9935 16.3047 39.0853 16.1486 39.1782C15.556 39.5328 14.8647 39.91 14.037 40.3011L13.8395 35.2641C13.8395 35.2641 11.2716 35.4616 9 34.474C9.26173 34.3436 10.3896 33.7362 12.0114 32.4789C12.1565 32.3673 12.3077 32.2488 12.4598 32.1253C13.1768 31.5486 13.9758 30.8542 14.8301 30.0295C16.1111 32.2024 19.0741 36.8444 19.0741 36.8444Z" fill="url(#paint3_linear_278_651)"/>
<path fill-rule="evenodd" clip-rule="evenodd" d="M29.3457 40.8938C38.1823 40.8938 45.3457 33.7304 45.3457 24.8938C45.3457 16.0572 38.1823 8.8938 29.3457 8.8938C20.5091 8.8938 13.3457 16.0572 13.3457 24.8938C13.3457 33.7304 20.5091 40.8938 29.3457 40.8938ZM29.3454 37.0419C36.0547 37.0419 41.4936 31.603 41.4936 24.8938C41.4936 18.1845 36.0547 12.7456 29.3454 12.7456C22.6362 12.7456 17.1973 18.1845 17.1973 24.8938C17.1973 31.603 22.6362 37.0419 29.3454 37.0419Z" fill="#84391B"/>
<mask id="mask0_278_651" style="mask-type:alpha" maskUnits="userSpaceOnUse" x="13" y="8" width="33" height="33">
<path fill-rule="evenodd" clip-rule="evenodd" d="M29.3457 40.8938C38.1823 40.8938 45.3457 33.7304 45.3457 24.8938C45.3457 16.0572 38.1823 8.8938 29.3457 8.8938C20.5091 8.8938 13.3457 16.0572 13.3457 24.8938C13.3457 33.7304 20.5091 40.8938 29.3457 40.8938ZM29.3454 37.0419C36.0547 37.0419 41.4936 31.603 41.4936 24.8938C41.4936 18.1845 36.0547 12.7456 29.3454 12.7456C22.6362 12.7456 17.1973 18.1845 17.1973 24.8938C17.1973 31.603 22.6362 37.0419 29.3454 37.0419Z" fill="#6C7E92"/>
</mask>
<g mask="url(#mask0_278_651)">
<g filter="url(#filter1_f_278_651)">
<ellipse cx="19.6641" cy="14.3709" rx="3.65432" ry="7.40741" transform="rotate(42.5525 19.6641 14.3709)" fill="#F9EEDE"/>
</g>
<g filter="url(#filter2_f_278_651)">
<ellipse cx="39.7693" cy="14.3707" rx="3.65432" ry="7.40741" transform="rotate(150 39.7693 14.3707)" fill="#DED6C3"/>
</g>
<g filter="url(#filter3_f_278_651)">
<ellipse cx="38.3531" cy="35.7954" rx="3.65432" ry="7.40741" transform="rotate(-135 38.3531 35.7954)" fill="#E0C9B8"/>
</g>
<g filter="url(#filter4_f_278_651)">
<ellipse cx="19.7847" cy="34.4126" rx="3.65432" ry="7.40741" transform="rotate(-45 19.7847 34.4126)" fill="#E29F50"/>
</g>
</g>
<circle cx="29.3454" cy="24.8938" r="12.1481" fill="url(#paint4_linear_278_651)"/>
<path fill-rule="evenodd" clip-rule="evenodd" d="M29.3456 37.9308C36.5458 37.9308 42.3827 32.0939 42.3827 24.8937C42.3827 17.6936 36.5458 11.8567 29.3456 11.8567C22.1455 11.8567 16.3086 17.6936 16.3086 24.8937C16.3086 32.0939 22.1455 37.9308 29.3456 37.9308ZM29.3454 37.0419C36.0547 37.0419 41.4936 31.603 41.4936 24.8938C41.4936 18.1845 36.0547 12.7456 29.3454 12.7456C22.6362 12.7456 17.1973 18.1845 17.1973 24.8938C17.1973 31.603 22.6362 37.0419 29.3454 37.0419Z" fill="url(#paint5_linear_278_651)"/>
<path d="M29.8829 19.9149L31.1274 22.4433C31.2162 22.6309 31.394 22.7593 31.6014 22.789L34.3965 23.1939C34.9101 23.2729 35.1175 23.905 34.7422 24.2606L32.7175 26.226C32.5693 26.3741 32.5002 26.5815 32.5397 26.7791L33.0138 29.5544C33.1027 30.068 32.5595 30.4531 32.1051 30.2161L29.6162 28.9124C29.4286 28.8136 29.2113 28.8136 29.0335 28.9124L26.5348 30.226C26.0706 30.463 25.5372 30.0778 25.6261 29.5643L26.1002 26.789C26.1397 26.5815 26.0706 26.3741 25.9224 26.2359L23.9076 24.2704C23.5323 23.905 23.7397 23.2729 24.2533 23.2038L27.0483 22.7988C27.2558 22.7692 27.4335 22.6408 27.5224 22.4531L28.7669 19.9248C28.9841 19.4408 29.6558 19.4408 29.8829 19.9149Z" fill="url(#paint6_linear_278_651)"/>
<path d="M24.2533 23.2038L27.0483 22.7988C27.2558 22.7692 27.4335 22.6408 27.5224 22.4531L28.7669 19.9248M24.2533 23.2038L24.2401 23.1059C24.2399 23.1059 24.2398 23.1059 24.2396 23.106M24.2533 23.2038L24.2391 23.106L24.2396 23.106M24.2533 23.2038L24.2396 23.106M24.2396 23.106L27.0342 22.7011L27.0344 22.7011C27.2099 22.676 27.3589 22.5677 27.4332 22.4109L27.4338 22.4095L27.4338 22.4095L28.6775 19.8827M28.6775 19.8827C28.6773 19.8832 28.677 19.8838 28.6768 19.8843L28.7669 19.9248M28.6775 19.8827L28.6783 19.8811L28.7669 19.9248M28.6775 19.8827C28.9308 19.3219 29.7092 19.3248 29.9718 19.8717C29.9718 19.8719 29.9719 19.872 29.972 19.8722L31.216 22.3997L31.2166 22.401L31.2166 22.401C31.2909 22.5578 31.4399 22.6661 31.6154 22.6912L31.6156 22.6912L34.4107 23.0961L34.4115 23.0963C35.0025 23.1872 35.2474 23.9173 34.8106 24.3318C34.8104 24.332 34.8103 24.3321 34.8101 24.3323L32.7873 26.2958C32.7872 26.296 32.787 26.2962 32.7868 26.2963C32.6602 26.4232 32.6041 26.5976 32.6366 26.7597L32.6371 26.7624L32.6371 26.7624L33.1111 29.5375C33.2142 30.1334 32.5847 30.5777 32.0595 30.3037L32.0593 30.3036L29.5704 28.9999L29.5702 28.9998C29.4106 28.9158 29.2287 28.917 29.0815 28.9987L29.0795 28.9999L29.0795 28.9998L26.5807 30.3134L26.5797 30.314C26.0449 30.587 25.4258 30.1433 25.5288 29.5475C25.5288 29.5475 25.5288 29.5475 25.5288 29.5474L26.0028 26.7723L26.0032 26.7705C26.0364 26.5961 25.9782 26.423 25.855 26.3081L25.8534 26.3066L25.8535 26.3066L23.8387 24.3412L23.8386 24.3411L28.7669 19.9248M29.0335 28.9124C29.2113 28.8136 29.4286 28.8136 29.6162 28.9124L32.1051 30.2161C32.5595 30.4531 33.1027 30.068 33.0138 29.5544L29.0335 28.9124ZM29.0335 28.9124L26.5348 30.226L29.0335 28.9124Z" stroke="url(#paint7_linear_278_651)" stroke-width="0.197531"/>
<circle cx="29.3454" cy="24.8938" r="11.9506" stroke="url(#paint8_linear_278_651)" stroke-width="0.395062"/>
<path opacity="0.15" d="M41.8889 14.9679C41.1371 15.8677 40.4531 16.5624 39.6189 17.3702C39.5571 17.4316 39.4953 17.4929 39.4335 17.5543C39.3923 17.5952 39.3614 17.6258 39.3202 17.6667C39.1657 17.8099 39.0112 17.9633 38.8464 18.1064C38.7846 18.1575 38.7331 18.2086 38.6713 18.27C38.6301 18.3007 38.589 18.3416 38.5581 18.3722C38.5066 18.4234 38.4551 18.4643 38.4036 18.5052C32.9244 23.3211 25.9622 26.2556 18.6086 26.7873C18.5365 26.7873 18.4747 26.7975 18.4026 26.7975C18.3511 26.7975 18.2996 26.8078 18.2481 26.8078C18.1657 26.8078 18.0936 26.818 18.0112 26.818C17.7434 26.8282 17.4757 26.8487 17.2079 26.8487C17.1255 26.8487 17.0328 26.8589 16.9504 26.8589C16.7444 26.8691 16.5384 26.8691 16.3428 26.8691C15.3849 26.8691 14.4271 26.8384 13.459 26.7566C13.3869 26.1534 13.3457 25.5297 13.3457 24.9059C13.3457 16.0614 20.5654 8.8938 29.4639 8.8938C33.4703 8.8938 37.0423 10.4313 39.8642 12.8444C40.5955 13.4681 41.271 14.2215 41.8889 14.9679Z" fill="url(#paint9_linear_278_651)"/>
</g>
<defs>
<filter id="filter0_d_278_651" x="0.4" y="0.293798" width="57.8914" height="49.2" filterUnits="userSpaceOnUse" color-interpolation-filters="sRGB">
<feFlood flood-opacity="0" result="BackgroundImageFix"/>
<feColorMatrix in="SourceAlpha" type="matrix" values="0 0 0 0 0 0 0 0 0 0 0 0 0 0 0 0 0 0 127 0" result="hardAlpha"/>
<feOffset/>
<feGaussianBlur stdDeviation="4.3"/>
<feComposite in2="hardAlpha" operator="out"/>
<feColorMatrix type="matrix" values="0 0 0 0 0.596078 0 0 0 0 0.345098 0 0 0 0 0.235294 0 0 0 1 0"/>
<feBlend mode="normal" in2="BackgroundImageFix" result="effect1_dropShadow_278_651"/>
<feBlend mode="normal" in="SourceGraphic" in2="effect1_dropShadow_278_651" result="shape"/>
</filter>
<filter id="filter1_f_278_651" x="8.14843" y="2.55199" width="23.0303" height="23.6377" filterUnits="userSpaceOnUse" color-interpolation-filters="sRGB">
<feFlood flood-opacity="0" result="BackgroundImageFix"/>
<feBlend mode="normal" in="SourceGraphic" in2="BackgroundImageFix" result="shape"/>
<feGaussianBlur stdDeviation="2.91358" result="effect1_foregroundBlur_278_651"/>
</filter>
<filter id="filter2_f_278_651" x="29.0703" y="1.87157" width="21.3975" height="24.9981" filterUnits="userSpaceOnUse" color-interpolation-filters="sRGB">
<feFlood flood-opacity="0" result="BackgroundImageFix"/>
<feBlend mode="normal" in="SourceGraphic" in2="BackgroundImageFix" result="shape"/>
<feGaussianBlur stdDeviation="2.91358" result="effect1_foregroundBlur_278_651"/>
</filter>
<filter id="filter3_f_278_651" x="26.6836" y="24.1265" width="23.3389" height="23.3379" filterUnits="userSpaceOnUse" color-interpolation-filters="sRGB">
<feFlood flood-opacity="0" result="BackgroundImageFix"/>
<feBlend mode="normal" in="SourceGraphic" in2="BackgroundImageFix" result="shape"/>
<feGaussianBlur stdDeviation="2.91358" result="effect1_foregroundBlur_278_651"/>
</filter>
<filter id="filter4_f_278_651" x="8.1162" y="22.7436" width="23.3379" height="23.3379" filterUnits="userSpaceOnUse" color-interpolation-filters="sRGB">
<feFlood flood-opacity="0" result="BackgroundImageFix"/>
<feBlend mode="normal" in="SourceGraphic" in2="BackgroundImageFix" result="shape"/>
<feGaussianBlur stdDeviation="2.91358" result="effect1_foregroundBlur_278_651"/>
</filter>
<linearGradient id="paint0_linear_278_651" x1="47.4819" y1="37.9129" x2="41.4836" y2="33.7129" gradientUnits="userSpaceOnUse">
<stop stop-color="#FF00B7"/>
<stop offset="0.405" stop-color="#E3029E"/>
<stop offset="0.5279" stop-color="#E527A5"/>
<stop offset="0.6172" stop-color="#B90280"/>
<stop offset="1" stop-color="#730054"/>
</linearGradient>
<linearGradient id="paint1_linear_278_651" x1="44.6498" y1="30.426" x2="44.6498" y2="39.3641" gradientUnits="userSpaceOnUse">
<stop offset="0.0820804" stop-color="#EDB966"/>
<stop offset="0.2263" stop-color="#DDDCD7"/>
<stop offset="0.3883" stop-color="#E9B87D"/>
<stop offset="0.5895" stop-color="#853A27"/>
<stop offset="1" stop-color="#D3954C"/>
</linearGradient>
<linearGradient id="paint2_linear_278_651" x1="12.3086" y1="37.7826" x2="16.8025" y2="34.0789" gradientUnits="userSpaceOnUse">
<stop stop-color="#FF00B7"/>
<stop offset="0.405" stop-color="#E3029E"/>
<stop offset="0.5279" stop-color="#E527A5"/>
<stop offset="0.6172" stop-color="#B90280"/>
<stop offset="1" stop-color="#730054"/>
</linearGradient>
<linearGradient id="paint3_linear_278_651" x1="14.0326" y1="30.1296" x2="14.0326" y2="39.0677" gradientUnits="userSpaceOnUse">
<stop offset="0.0820804" stop-color="#EDB966"/>
<stop offset="0.2263" stop-color="#DDDCD7"/>
<stop offset="0.3883" stop-color="#E9B87D"/>
<stop offset="0.5895" stop-color="#853A27"/>
<stop offset="1" stop-color="#D3954C"/>
</linearGradient>
<linearGradient id="paint4_linear_278_651" x1="29.3454" y1="12.7456" x2="29.3454" y2="37.0419" gradientUnits="userSpaceOnUse">
<stop stop-color="#616184"/>
<stop offset="0.484375" stop-color="#403C55"/>
<stop offset="1" stop-color="#40303A"/>
</linearGradient>
<linearGradient id="paint5_linear_278_651" x1="29.3456" y1="11.8567" x2="29.3456" y2="37.9308" gradientUnits="userSpaceOnUse">
<stop stop-color="#3F221F"/>
<stop offset="1" stop-color="#E3A763"/>
</linearGradient>
<linearGradient id="paint6_linear_278_651" x1="29.32" y1="19.6651" x2="29.32" y2="29.0082" gradientUnits="userSpaceOnUse">
<stop offset="0.0820804" stop-color="#EDB966"/>
<stop offset="0.2263" stop-color="#DDDCD7"/>
<stop offset="0.3883" stop-color="#E9B87D"/>
<stop offset="0.5895" stop-color="#853A27"/>
<stop offset="1" stop-color="#D3954C"/>
</linearGradient>
<linearGradient id="paint7_linear_278_651" x1="29.3249" y1="19.5605" x2="29.3249" y2="30.2976" gradientUnits="userSpaceOnUse">
<stop stop-color="#3F221F"/>
<stop offset="1" stop-color="#863C1F"/>
</linearGradient>
<linearGradient id="paint8_linear_278_651" x1="29.3454" y1="12.7424" x2="29.3454" y2="37.0387" gradientUnits="userSpaceOnUse">
<stop stop-color="#3C3D4F"/>
<stop offset="1" stop-color="#081630"/>
</linearGradient>
<linearGradient id="paint9_linear_278_651" x1="20.8877" y1="11.3604" x2="29.9263" y2="24.0117" gradientUnits="userSpaceOnUse">
<stop offset="0.5084" stop-color="white" stop-opacity="0"/>
<stop offset="1" stop-color="white"/>
</linearGradient>
</defs>
</svg>
