<svg width="16" height="16" viewBox="0 0 16 16" fill="none" xmlns="http://www.w3.org/2000/svg">
<path d="M14.6339 4.92658C15.445 6.62298 15.599 8.55969 15.0661 10.3629C14.5332 12.1662 13.3513 13.7081 11.7484 14.6912C10.1455 15.6742 8.23529 16.0287 6.38642 15.6862C4.53755 15.3436 2.8811 14.3284 1.73675 12.8364C0.592409 11.3444 0.041296 9.48133 0.18978 7.60688C0.338265 5.73242 1.17582 3.9794 2.5408 2.68616C3.90578 1.39292 5.70141 0.651129 7.58115 0.603958C9.46089 0.556787 11.2915 1.20758 12.7196 2.43073L14.376 0.773644C14.4856 0.663967 14.6344 0.60235 14.7895 0.60235C14.9446 0.60235 15.0934 0.663967 15.203 0.773644C15.3127 0.883322 15.3743 1.03208 15.3743 1.18718C15.3743 1.34229 15.3127 1.49105 15.203 1.60073L8.18892 8.61484C8.07924 8.72452 7.93049 8.78613 7.77538 8.78613C7.62027 8.78613 7.47152 8.72452 7.36184 8.61484C7.25216 8.50516 7.19055 8.35641 7.19055 8.2013C7.19055 8.04619 7.25216 7.89744 7.36184 7.78776L9.38717 5.76243C8.83828 5.39942 8.18294 5.23228 7.52723 5.28806C6.87153 5.34385 6.25385 5.6193 5.77417 6.06983C5.2945 6.52035 4.98092 7.11958 4.88419 7.7705C4.78746 8.42142 4.91324 9.08594 5.24118 9.65648C5.56911 10.227 6.08001 10.6702 6.69115 10.9142C7.3023 11.1583 7.97792 11.1889 8.60865 11.0012C9.23938 10.8135 9.7883 10.4184 10.1665 9.8799C10.5448 9.34139 10.7302 8.69099 10.6928 8.03398C10.6885 7.95722 10.6993 7.88037 10.7247 7.8078C10.7501 7.73523 10.7895 7.66837 10.8408 7.61104C10.892 7.55371 10.954 7.50703 11.0233 7.47367C11.0925 7.44031 11.1677 7.42091 11.2444 7.41659C11.3995 7.40788 11.5516 7.46109 11.6674 7.56454C11.7247 7.61577 11.7714 7.67778 11.8048 7.74705C11.8381 7.81631 11.8575 7.89147 11.8618 7.96823C11.9151 8.89817 11.6495 9.81845 11.1089 10.577C10.5683 11.3355 9.78505 11.8869 8.88863 12.14C7.9922 12.393 7.03625 12.3327 6.17879 11.9688C5.32132 11.605 4.61366 10.9595 4.17277 10.139C3.73188 9.31845 3.58415 8.37206 3.754 7.45621C3.92385 6.54036 4.40111 5.70988 5.1069 5.10203C5.81269 4.49418 6.70476 4.14534 7.63567 4.11317C8.56658 4.08101 9.4806 4.36744 10.2267 4.92512L11.8889 3.26292C10.6707 2.25157 9.12192 1.72593 7.53986 1.78695C5.9578 1.84796 4.45406 2.49134 3.31746 3.59351C2.18086 4.69568 1.49154 6.17892 1.3819 7.75836C1.27226 9.33779 1.75002 10.9021 2.72343 12.1507C3.69684 13.3993 5.09726 14.2443 6.65572 14.5233C8.21417 14.8024 9.82077 14.4958 11.1669 13.6624C12.5131 12.8291 13.5039 11.5278 13.9491 10.0084C14.3943 8.48905 14.2624 6.85878 13.5788 5.43072C13.512 5.29082 13.5034 5.13008 13.5551 4.98388C13.6068 4.83768 13.7144 4.71799 13.8543 4.65113C13.9942 4.58428 14.1549 4.57574 14.3011 4.6274C14.4473 4.67906 14.567 4.78668 14.6339 4.92658Z" fill="#B5B5B5"/>
</svg>
