<svg width="20" height="20" viewBox="0 0 20 20" fill="none" xmlns="http://www.w3.org/2000/svg">
<path d="M18.2918 6.15823C19.3057 8.27872 19.4982 10.6996 18.8321 12.9537C18.166 15.2077 16.6886 17.1352 14.685 18.364C12.6814 19.5928 10.2936 20.0359 7.98254 19.6077C5.67145 19.1795 3.60089 17.9105 2.17045 16.0455C0.740023 14.1804 0.0511317 11.8517 0.236737 9.50859C0.422343 7.16552 1.46929 4.97425 3.17551 3.3577C4.88173 1.74115 7.12628 0.813912 9.47595 0.754948C11.8256 0.695984 14.1139 1.50947 15.899 3.03841L17.9695 0.967055C18.1066 0.829958 18.2925 0.752938 18.4864 0.752938C18.6803 0.752938 18.8662 0.829958 19.0033 0.967055C19.1404 1.10415 19.2174 1.2901 19.2174 1.48398C19.2174 1.67787 19.1404 1.86381 19.0033 2.00091L10.2357 10.7685C10.0986 10.9056 9.91262 10.9827 9.71874 10.9827C9.52485 10.9827 9.33891 10.9056 9.20181 10.7685C9.06471 10.6315 8.98769 10.4455 8.98769 10.2516C8.98769 10.0577 9.06471 9.8718 9.20181 9.7347L11.7335 7.20304C11.0474 6.74927 10.2282 6.54035 9.40855 6.61008C8.58893 6.67981 7.81682 7.02413 7.21723 7.58728C6.61764 8.15044 6.22566 8.89947 6.10475 9.71313C5.98383 10.5268 6.14106 11.3574 6.55098 12.0706C6.9609 12.7838 7.59952 13.3377 8.36345 13.6428C9.12738 13.9479 9.97191 13.9862 10.7603 13.7515C11.5487 13.5169 12.2349 13.023 12.7077 12.3499C13.1805 11.6767 13.4123 10.8637 13.3655 10.0425C13.3601 9.94653 13.3737 9.85046 13.4054 9.75975C13.4371 9.66904 13.4864 9.58546 13.5505 9.5138C13.6145 9.44214 13.692 9.38379 13.7786 9.34209C13.8652 9.30038 13.9591 9.27614 14.0551 9.27074C14.2488 9.25984 14.439 9.32637 14.5837 9.45568C14.6554 9.51971 14.7138 9.59723 14.7555 9.68381C14.7972 9.77039 14.8214 9.86433 14.8268 9.96028C14.8934 11.1227 14.5614 12.2731 13.8856 13.2212C13.2099 14.1694 12.2308 14.8586 11.1103 15.1749C9.98976 15.4913 8.79483 15.4158 7.72299 14.961C6.65116 14.5062 5.76658 13.6993 5.21547 12.6737C4.66436 11.6481 4.4797 10.4651 4.69201 9.32026C4.90432 8.17545 5.5009 7.13735 6.38314 6.37754C7.26538 5.61772 8.38047 5.18167 9.5441 5.14147C10.7077 5.10126 11.8503 5.4593 12.7828 6.1564L14.8606 4.07866C13.3379 2.81447 11.4019 2.15741 9.42434 2.23368C7.44676 2.30996 5.56709 3.11418 4.14634 4.49189C2.72559 5.8696 1.86394 7.72365 1.72689 9.69795C1.58983 11.6722 2.18704 13.6276 3.4038 15.1884C4.62057 16.7492 6.37109 17.8054 8.31916 18.1542C10.2672 18.503 12.2755 18.1197 13.9582 17.078C15.6409 16.0364 16.8794 14.4097 17.4359 12.5105C17.9924 10.6113 17.8275 8.57348 16.973 6.7884C16.8895 6.61352 16.8788 6.4126 16.9434 6.22985C17.008 6.0471 17.1425 5.89748 17.3174 5.81392C17.4922 5.73035 17.6932 5.71968 17.8759 5.78425C18.0587 5.84882 18.2083 5.98335 18.2918 6.15823Z" fill="url(#paint0_linear_270_13147)"/>
<path d="M18.2918 6.15823C19.3057 8.27872 19.4982 10.6996 18.8321 12.9537C18.166 15.2077 16.6886 17.1352 14.685 18.364C12.6814 19.5928 10.2936 20.0359 7.98254 19.6077C5.67145 19.1795 3.60089 17.9105 2.17045 16.0455C0.740023 14.1804 0.0511317 11.8517 0.236737 9.50859C0.422343 7.16552 1.46929 4.97425 3.17551 3.3577C4.88173 1.74115 7.12628 0.813912 9.47595 0.754948C11.8256 0.695984 14.1139 1.50947 15.899 3.03841L17.9695 0.967055C18.1066 0.829958 18.2925 0.752938 18.4864 0.752938C18.6803 0.752938 18.8662 0.829958 19.0033 0.967055C19.1404 1.10415 19.2174 1.2901 19.2174 1.48398C19.2174 1.67787 19.1404 1.86381 19.0033 2.00091L10.2357 10.7685C10.0986 10.9056 9.91262 10.9827 9.71874 10.9827C9.52485 10.9827 9.33891 10.9056 9.20181 10.7685C9.06471 10.6315 8.98769 10.4455 8.98769 10.2516C8.98769 10.0577 9.06471 9.8718 9.20181 9.7347L11.7335 7.20304C11.0474 6.74927 10.2282 6.54035 9.40855 6.61008C8.58893 6.67981 7.81682 7.02413 7.21723 7.58728C6.61764 8.15044 6.22566 8.89947 6.10475 9.71313C5.98383 10.5268 6.14106 11.3574 6.55098 12.0706C6.9609 12.7838 7.59952 13.3377 8.36345 13.6428C9.12738 13.9479 9.97191 13.9862 10.7603 13.7515C11.5487 13.5169 12.2349 13.023 12.7077 12.3499C13.1805 11.6767 13.4123 10.8637 13.3655 10.0425C13.3601 9.94653 13.3737 9.85046 13.4054 9.75975C13.4371 9.66904 13.4864 9.58546 13.5505 9.5138C13.6145 9.44214 13.692 9.38379 13.7786 9.34209C13.8652 9.30038 13.9591 9.27614 14.0551 9.27074C14.2488 9.25984 14.439 9.32637 14.5837 9.45568C14.6554 9.51971 14.7138 9.59723 14.7555 9.68381C14.7972 9.77039 14.8214 9.86433 14.8268 9.96028C14.8934 11.1227 14.5614 12.2731 13.8856 13.2212C13.2099 14.1694 12.2308 14.8586 11.1103 15.1749C9.98976 15.4913 8.79483 15.4158 7.72299 14.961C6.65116 14.5062 5.76658 13.6993 5.21547 12.6737C4.66436 11.6481 4.4797 10.4651 4.69201 9.32026C4.90432 8.17545 5.5009 7.13735 6.38314 6.37754C7.26538 5.61772 8.38047 5.18167 9.5441 5.14147C10.7077 5.10126 11.8503 5.4593 12.7828 6.1564L14.8606 4.07866C13.3379 2.81447 11.4019 2.15741 9.42434 2.23368C7.44676 2.30996 5.56709 3.11418 4.14634 4.49189C2.72559 5.8696 1.86394 7.72365 1.72689 9.69795C1.58983 11.6722 2.18704 13.6276 3.4038 15.1884C4.62057 16.7492 6.37109 17.8054 8.31916 18.1542C10.2672 18.503 12.2755 18.1197 13.9582 17.078C15.6409 16.0364 16.8794 14.4097 17.4359 12.5105C17.9924 10.6113 17.8275 8.57348 16.973 6.7884C16.8895 6.61352 16.8788 6.4126 16.9434 6.22985C17.008 6.0471 17.1425 5.89748 17.3174 5.81392C17.4922 5.73035 17.6932 5.71968 17.8759 5.78425C18.0587 5.84882 18.2083 5.98335 18.2918 6.15823Z" fill="url(#paint1_linear_270_13147)"/>
<defs>
<linearGradient id="paint0_linear_270_13147" x1="9.71446" y1="0.751953" x2="9.71446" y2="19.7668" gradientUnits="userSpaceOnUse">
<stop stop-color="#FFD572"/>
<stop offset="1" stop-color="#FEBD38"/>
</linearGradient>
<linearGradient id="paint1_linear_270_13147" x1="9.71446" y1="0.751953" x2="9.71446" y2="19.7668" gradientUnits="userSpaceOnUse">
<stop stop-color="#FFD572"/>
<stop offset="1" stop-color="#FEBD38"/>
</linearGradient>
</defs>
</svg>
