<svg width="59" height="50" viewBox="0 0 59 50" fill="none" xmlns="http://www.w3.org/2000/svg">
<g filter="url(#filter0_d_278_704)">
<path d="M39.6172 37.1407C39.6172 37.1407 40.2098 37.998 42.0972 39.201C42.2384 39.2899 42.3866 39.3817 42.5426 39.4746C43.1352 39.8291 43.8315 40.2064 44.6542 40.5975L44.8518 35.5605C44.8518 35.5605 47.4197 35.758 49.6913 34.7704C49.4295 34.64 48.3016 34.0326 46.6799 32.7753C46.5347 32.6637 46.3836 32.5452 46.2315 32.4217C45.5145 31.8449 44.7155 31.1506 43.8611 30.3259C42.5802 32.4988 39.6172 37.1407 39.6172 37.1407Z" fill="url(#paint0_linear_278_704)"/>
<path d="M39.6172 37.1407C39.6172 37.1407 40.2098 37.998 42.0972 39.201C42.2384 39.2899 42.3866 39.3817 42.5426 39.4746C43.1352 39.8291 43.8315 40.2064 44.6542 40.5975L44.8518 35.5605C44.8518 35.5605 47.4197 35.758 49.6913 34.7704C49.4295 34.64 48.3016 34.0326 46.6799 32.7753C46.5347 32.6637 46.3836 32.5452 46.2315 32.4217C45.5145 31.8449 44.7155 31.1506 43.8611 30.3259C42.5802 32.4988 39.6172 37.1407 39.6172 37.1407Z" fill="url(#paint1_linear_278_704)"/>
<path d="M19.0741 36.8444C19.0741 36.8444 18.4815 37.7016 16.5941 38.9046C16.4528 38.9935 16.3047 39.0853 16.1486 39.1782C15.556 39.5328 14.8647 39.91 14.037 40.3011L13.8395 35.2641C13.8395 35.2641 11.2716 35.4616 9 34.474C9.26173 34.3436 10.3896 33.7362 12.0114 32.4789C12.1565 32.3673 12.3077 32.2488 12.4598 32.1253C13.1768 31.5486 13.9758 30.8542 14.8301 30.0295C16.1111 32.2024 19.0741 36.8444 19.0741 36.8444Z" fill="url(#paint2_linear_278_704)"/>
<path d="M19.0741 36.8444C19.0741 36.8444 18.4815 37.7016 16.5941 38.9046C16.4528 38.9935 16.3047 39.0853 16.1486 39.1782C15.556 39.5328 14.8647 39.91 14.037 40.3011L13.8395 35.2641C13.8395 35.2641 11.2716 35.4616 9 34.474C9.26173 34.3436 10.3896 33.7362 12.0114 32.4789C12.1565 32.3673 12.3077 32.2488 12.4598 32.1253C13.1768 31.5486 13.9758 30.8542 14.8301 30.0295C16.1111 32.2024 19.0741 36.8444 19.0741 36.8444Z" fill="url(#paint3_linear_278_704)"/>
<path fill-rule="evenodd" clip-rule="evenodd" d="M29.6416 40.8938C38.4782 40.8938 45.6416 33.7304 45.6416 24.8938C45.6416 16.0572 38.4782 8.8938 29.6416 8.8938C20.805 8.8938 13.6416 16.0572 13.6416 24.8938C13.6416 33.7304 20.805 40.8938 29.6416 40.8938ZM29.6414 37.0419C36.3506 37.0419 41.7895 31.603 41.7895 24.8938C41.7895 18.1846 36.3506 12.7457 29.6414 12.7457C22.9321 12.7457 17.4932 18.1846 17.4932 24.8938C17.4932 31.603 22.9321 37.0419 29.6414 37.0419Z" fill="#E36302"/>
<mask id="mask0_278_704" style="mask-type:alpha" maskUnits="userSpaceOnUse" x="13" y="8" width="33" height="33">
<path fill-rule="evenodd" clip-rule="evenodd" d="M29.6416 40.8938C38.4782 40.8938 45.6416 33.7304 45.6416 24.8938C45.6416 16.0572 38.4782 8.8938 29.6416 8.8938C20.805 8.8938 13.6416 16.0572 13.6416 24.8938C13.6416 33.7304 20.805 40.8938 29.6416 40.8938ZM29.6414 37.0419C36.3506 37.0419 41.7895 31.603 41.7895 24.8938C41.7895 18.1846 36.3506 12.7457 29.6414 12.7457C22.9321 12.7457 17.4932 18.1846 17.4932 24.8938C17.4932 31.603 22.9321 37.0419 29.6414 37.0419Z" fill="#6C7E92"/>
</mask>
<g mask="url(#mask0_278_704)">
<g filter="url(#filter1_f_278_704)">
<ellipse cx="23.4533" cy="13.4335" rx="5.67866" ry="10.7054" transform="rotate(42.5525 23.4533 13.4335)" fill="#FBEB93"/>
</g>
<g filter="url(#filter2_f_278_704)">
<ellipse cx="39.2307" cy="13.3039" rx="3.65432" ry="10.2813" transform="rotate(150 39.2307 13.3039)" fill="#F9C94D"/>
</g>
<g filter="url(#filter3_f_278_704)">
<ellipse cx="38.5493" cy="35.7773" rx="3.65432" ry="7.40741" transform="rotate(-135 38.5493 35.7773)" fill="#FEDB78"/>
</g>
<g filter="url(#filter4_f_278_704)">
<ellipse cx="19.982" cy="34.3946" rx="3.65432" ry="7.40741" transform="rotate(-45 19.982 34.3946)" fill="#FBE515"/>
</g>
</g>
<circle cx="29.6423" cy="24.8938" r="12.1481" fill="url(#paint4_linear_278_704)"/>
<path fill-rule="evenodd" clip-rule="evenodd" d="M29.6415 37.9308C36.8417 37.9308 42.6786 32.0939 42.6786 24.8937C42.6786 17.6936 36.8417 11.8567 29.6415 11.8567C22.4414 11.8567 16.6045 17.6936 16.6045 24.8937C16.6045 32.0939 22.4414 37.9308 29.6415 37.9308ZM29.6414 37.0419C36.3506 37.0419 41.7895 31.603 41.7895 24.8938C41.7895 18.1846 36.3506 12.7457 29.6414 12.7457C22.9321 12.7457 17.4932 18.1846 17.4932 24.8938C17.4932 31.603 22.9321 37.0419 29.6414 37.0419Z" fill="url(#paint5_linear_278_704)"/>
<path d="M32.7027 30.6909C32.5366 30.6907 32.3731 30.6497 32.2266 30.5714L29.7298 29.2598C29.6966 29.2423 29.6597 29.2332 29.6222 29.2332C29.5846 29.2332 29.5477 29.2423 29.5145 29.2598L27.0177 30.5714C26.8712 30.6497 26.7077 30.6907 26.5417 30.6909C26.3928 30.6904 26.2458 30.6575 26.1109 30.5945C25.976 30.5314 25.8564 30.4398 25.7606 30.3259C25.6647 30.2119 25.5948 30.0785 25.5557 29.9348C25.5166 29.7911 25.5093 29.6407 25.5343 29.4939L26.0113 26.7146C26.0177 26.6775 26.0149 26.6394 26.0032 26.6036C25.9915 26.5678 25.9712 26.5354 25.9441 26.5092L23.9254 24.5408C23.789 24.4076 23.6925 24.2389 23.6469 24.0537C23.6013 23.8686 23.6083 23.6744 23.6671 23.4931C23.726 23.3117 23.8343 23.1504 23.9799 23.0274C24.1256 22.9043 24.3027 22.8244 24.4913 22.7966L27.2824 22.3917C27.3196 22.386 27.355 22.3715 27.3854 22.3494C27.4158 22.3272 27.4405 22.298 27.4572 22.2642L28.7056 19.7349C28.7901 19.5639 28.9206 19.4199 29.0826 19.3193C29.2446 19.2186 29.4315 19.1653 29.6222 19.1653C29.8129 19.1653 29.9997 19.2186 30.1617 19.3193C30.3237 19.4199 30.4543 19.5639 30.5387 19.7349L31.7871 22.2642C31.8038 22.298 31.8285 22.3272 31.8589 22.3494C31.8893 22.3715 31.9247 22.386 31.9619 22.3917L34.753 22.7966C34.9416 22.8244 35.1188 22.9043 35.2644 23.0274C35.41 23.1504 35.5183 23.3117 35.5772 23.4931C35.636 23.6744 35.643 23.8686 35.5974 24.0537C35.5518 24.2389 35.4553 24.4076 35.3189 24.5408L33.3002 26.5092C33.2731 26.5354 33.2528 26.5678 33.2411 26.6036C33.2294 26.6394 33.2266 26.6775 33.233 26.7146L33.7101 29.4939C33.735 29.6407 33.7277 29.7911 33.6886 29.9348C33.6495 30.0785 33.5796 30.2119 33.4838 30.3259C33.3879 30.4398 33.2683 30.5314 33.1335 30.5945C32.9986 30.6575 32.8516 30.6904 32.7027 30.6909Z" fill="#470068"/>
<path d="M30.1852 19.9105L31.4336 22.4399C31.4788 22.5309 31.5453 22.6096 31.6275 22.6693C31.7097 22.729 31.8052 22.7679 31.9057 22.7826L34.6968 23.1886C34.8126 23.2054 34.9214 23.2543 35.0108 23.3297C35.1003 23.4051 35.1668 23.5041 35.203 23.6153C35.2392 23.7266 35.2435 23.8458 35.2155 23.9594C35.1875 24.073 35.1282 24.1765 35.0444 24.2582L33.0247 26.2266C32.952 26.2976 32.8977 26.3853 32.8663 26.4819C32.835 26.5786 32.8277 26.6815 32.8449 26.7816L33.321 29.5619C33.341 29.6772 33.3283 29.7959 33.2843 29.9044C33.2403 30.0129 33.1668 30.1069 33.0721 30.1757C32.9773 30.2445 32.8652 30.2854 32.7484 30.2937C32.6316 30.302 32.5149 30.2774 32.4114 30.2226L29.9195 28.911C29.8294 28.8634 29.7291 28.8385 29.6272 28.8385C29.5253 28.8385 29.4249 28.8634 29.3348 28.911L26.8351 30.2226C26.7316 30.2774 26.6148 30.302 26.498 30.2937C26.3812 30.2854 26.2691 30.2445 26.1744 30.1757C26.0796 30.1069 26.0061 30.0129 25.9621 29.9044C25.9181 29.7959 25.9054 29.6772 25.9254 29.5619L26.4015 26.7816C26.4187 26.6815 26.4114 26.5786 26.3801 26.4819C26.3488 26.3853 26.2944 26.2976 26.2217 26.2266L24.202 24.2582C24.1182 24.1765 24.059 24.073 24.0309 23.9594C24.0029 23.8458 24.0072 23.7266 24.0434 23.6153C24.0796 23.5041 24.1462 23.4051 24.2356 23.3297C24.3251 23.2543 24.4338 23.2054 24.5496 23.1886L27.3407 22.7826C27.4413 22.7679 27.5367 22.729 27.6189 22.6693C27.7011 22.6096 27.7677 22.5309 27.8128 22.4399L29.0612 19.9105C29.1129 19.8055 29.1929 19.7171 29.2922 19.6552C29.3915 19.5933 29.5062 19.5605 29.6232 19.5605C29.7402 19.5605 29.8549 19.5933 29.9542 19.6552C30.0536 19.7171 30.1336 19.8055 30.1852 19.9105Z" fill="url(#paint6_linear_278_704)"/>
<circle cx="29.6423" cy="24.8938" r="11.9012" stroke="url(#paint7_linear_278_704)" stroke-width="0.493827"/>
<path opacity="0.15" d="M42.1848 14.9679C41.433 15.8677 40.749 16.5624 39.9148 17.3702C39.853 17.4316 39.7912 17.4929 39.7294 17.5543C39.6882 17.5952 39.6573 17.6258 39.6161 17.6667C39.4616 17.8099 39.3071 17.9633 39.1423 18.1064C39.0805 18.1575 39.029 18.2086 38.9672 18.27C38.926 18.3007 38.8849 18.3416 38.854 18.3722C38.8025 18.4234 38.751 18.4643 38.6995 18.5052C33.2203 23.3211 26.2581 26.2556 18.9045 26.7873C18.8324 26.7873 18.7706 26.7975 18.6985 26.7975C18.647 26.7975 18.5955 26.8078 18.544 26.8078C18.4616 26.8078 18.3895 26.818 18.3071 26.818C18.0393 26.8282 17.7716 26.8487 17.5038 26.8487C17.4214 26.8487 17.3287 26.8589 17.2463 26.8589C17.0403 26.8691 16.8343 26.8691 16.6387 26.8691C15.6808 26.8691 14.723 26.8384 13.7549 26.7566C13.6828 26.1534 13.6416 25.5297 13.6416 24.9059C13.6416 16.0614 20.8613 8.8938 29.7598 8.8938C33.7662 8.8938 37.3382 10.4313 40.1601 12.8444C40.8914 13.4681 41.5669 14.2215 42.1848 14.9679Z" fill="url(#paint8_linear_278_704)"/>
</g>
<defs>
<filter id="filter0_d_278_704" x="0.4" y="0.293798" width="57.8914" height="49.2" filterUnits="userSpaceOnUse" color-interpolation-filters="sRGB">
<feFlood flood-opacity="0" result="BackgroundImageFix"/>
<feColorMatrix in="SourceAlpha" type="matrix" values="0 0 0 0 0 0 0 0 0 0 0 0 0 0 0 0 0 0 127 0" result="hardAlpha"/>
<feOffset/>
<feGaussianBlur stdDeviation="4.3"/>
<feComposite in2="hardAlpha" operator="out"/>
<feColorMatrix type="matrix" values="0 0 0 0 0.921569 0 0 0 0 0.552941 0 0 0 0 0.184314 0 0 0 1 0"/>
<feBlend mode="normal" in2="BackgroundImageFix" result="effect1_dropShadow_278_704"/>
<feBlend mode="normal" in="SourceGraphic" in2="effect1_dropShadow_278_704" result="shape"/>
</filter>
<filter id="filter1_f_278_704" x="9.26366" y="-1.16725" width="28.3799" height="29.2014" filterUnits="userSpaceOnUse" color-interpolation-filters="sRGB">
<feFlood flood-opacity="0" result="BackgroundImageFix"/>
<feBlend mode="normal" in="SourceGraphic" in2="BackgroundImageFix" result="shape"/>
<feGaussianBlur stdDeviation="2.91358" result="effect1_foregroundBlur_278_704"/>
</filter>
<filter id="filter2_f_278_704" x="27.3662" y="-1.61451" width="23.7295" height="29.8367" filterUnits="userSpaceOnUse" color-interpolation-filters="sRGB">
<feFlood flood-opacity="0" result="BackgroundImageFix"/>
<feBlend mode="normal" in="SourceGraphic" in2="BackgroundImageFix" result="shape"/>
<feGaussianBlur stdDeviation="2.91358" result="effect1_foregroundBlur_278_704"/>
</filter>
<filter id="filter3_f_278_704" x="26.8799" y="24.1084" width="23.3389" height="23.3379" filterUnits="userSpaceOnUse" color-interpolation-filters="sRGB">
<feFlood flood-opacity="0" result="BackgroundImageFix"/>
<feBlend mode="normal" in="SourceGraphic" in2="BackgroundImageFix" result="shape"/>
<feGaussianBlur stdDeviation="2.91358" result="effect1_foregroundBlur_278_704"/>
</filter>
<filter id="filter4_f_278_704" x="8.31346" y="22.7256" width="23.3379" height="23.3379" filterUnits="userSpaceOnUse" color-interpolation-filters="sRGB">
<feFlood flood-opacity="0" result="BackgroundImageFix"/>
<feBlend mode="normal" in="SourceGraphic" in2="BackgroundImageFix" result="shape"/>
<feGaussianBlur stdDeviation="2.91358" result="effect1_foregroundBlur_278_704"/>
</filter>
<linearGradient id="paint0_linear_278_704" x1="47.482" y1="37.9184" x2="41.4874" y2="33.7169" gradientUnits="userSpaceOnUse">
<stop stop-color="#FC0106"/>
<stop offset="0.5559" stop-color="#E82626"/>
<stop offset="0.6787" stop-color="#B90004"/>
<stop offset="1" stop-color="#790400"/>
</linearGradient>
<linearGradient id="paint1_linear_278_704" x1="44.6542" y1="30.272" x2="44.6542" y2="40.5924" gradientUnits="userSpaceOnUse">
<stop stop-color="#FFEE02"/>
<stop offset="0.5" stop-color="#D27003"/>
<stop offset="1" stop-color="#FBA400"/>
</linearGradient>
<linearGradient id="paint2_linear_278_704" x1="12.4568" y1="37.0913" x2="16.4598" y2="33.7369" gradientUnits="userSpaceOnUse">
<stop stop-color="#FC0106"/>
<stop offset="0.493927" stop-color="#E82626"/>
<stop offset="0.716768" stop-color="#B90004"/>
<stop offset="1" stop-color="#790400"/>
</linearGradient>
<linearGradient id="paint3_linear_278_704" x1="14.037" y1="29.9756" x2="14.037" y2="40.296" gradientUnits="userSpaceOnUse">
<stop stop-color="#FFEE02"/>
<stop offset="0.5" stop-color="#D27003"/>
<stop offset="1" stop-color="#FBA400"/>
</linearGradient>
<linearGradient id="paint4_linear_278_704" x1="29.6423" y1="12.7456" x2="29.6423" y2="37.0419" gradientUnits="userSpaceOnUse">
<stop stop-color="#BD49D0"/>
<stop offset="0.5" stop-color="#9703B9"/>
<stop offset="1" stop-color="#852878"/>
</linearGradient>
<linearGradient id="paint5_linear_278_704" x1="29.6415" y1="11.7199" x2="29.6415" y2="37.9176" gradientUnits="userSpaceOnUse">
<stop stop-color="#FFEE02"/>
<stop offset="0.5" stop-color="#D27003"/>
<stop offset="1" stop-color="#FBA400"/>
</linearGradient>
<linearGradient id="paint6_linear_278_704" x1="29.6249" y1="19.6665" x2="29.6249" y2="29.0043" gradientUnits="userSpaceOnUse">
<stop offset="0.0820804" stop-color="#F7E547"/>
<stop offset="0.2263" stop-color="#FEFCAF"/>
<stop offset="0.3883" stop-color="#F8DC20"/>
<stop offset="0.5895" stop-color="#E67A0B"/>
<stop offset="1" stop-color="#F8DC20"/>
</linearGradient>
<linearGradient id="paint7_linear_278_704" x1="29.6423" y1="12.7456" x2="29.6423" y2="37.0419" gradientUnits="userSpaceOnUse">
<stop stop-color="#AB2EBE"/>
<stop offset="1" stop-color="#340354"/>
</linearGradient>
<linearGradient id="paint8_linear_278_704" x1="21.1836" y1="11.3604" x2="30.2221" y2="24.0117" gradientUnits="userSpaceOnUse">
<stop offset="0.5084" stop-color="white" stop-opacity="0"/>
<stop offset="1" stop-color="white"/>
</linearGradient>
</defs>
</svg>
