<svg width="59" height="51" viewBox="0 0 59 51" fill="none" xmlns="http://www.w3.org/2000/svg">
<g filter="url(#filter0_d_239_1074)">
<path d="M39.6174 37.6678C39.6174 37.6678 40.21 38.5251 42.0974 39.7281C42.2387 39.817 42.3868 39.9088 42.5429 40.0017C43.1355 40.3562 43.8318 40.7335 44.6545 41.1246L44.852 36.0876C44.852 36.0876 47.4199 36.2851 49.6915 35.2975C49.4298 35.1671 48.3019 34.5597 46.6801 33.3024C46.535 33.1908 46.3839 33.0723 46.2318 32.9488C45.5147 32.372 44.7157 31.6777 43.8614 30.853C42.5804 33.0259 39.6174 37.6678 39.6174 37.6678Z" fill="url(#paint0_linear_239_1074)"/>
<path d="M19.0742 37.3715C19.0742 37.3715 18.4816 38.2287 16.5942 39.4317C16.453 39.5206 16.3048 39.6124 16.1488 39.7053C15.5562 40.0599 14.8648 40.4371 14.0372 40.8282L13.8396 35.7912C13.8396 35.7912 11.2717 35.9887 9.00012 35.0011C9.26185 34.8707 10.3898 34.2633 12.0115 33.006C12.1567 32.8944 12.3078 32.7759 12.4599 32.6524C13.1769 32.0757 13.9759 31.3813 14.8302 30.5566C16.1112 32.7295 19.0742 37.3715 19.0742 37.3715Z" fill="url(#paint1_linear_239_1074)"/>
<path fill-rule="evenodd" clip-rule="evenodd" d="M29.3458 41.4209C38.1824 41.4209 45.3458 34.2575 45.3458 25.4209C45.3458 16.5843 38.1824 9.4209 29.3458 9.4209C20.5093 9.4209 13.3458 16.5843 13.3458 25.4209C13.3458 34.2575 20.5093 41.4209 29.3458 41.4209ZM29.346 37.569C36.0552 37.569 41.4941 32.1301 41.4941 25.4209C41.4941 18.7117 36.0552 13.2728 29.346 13.2728C22.6367 13.2728 17.1978 18.7117 17.1978 25.4209C17.1978 32.1301 22.6367 37.569 29.346 37.569Z" fill="#C5C5C5"/>
<mask id="mask0_239_1074" style="mask-type:alpha" maskUnits="userSpaceOnUse" x="13" y="9" width="33" height="33">
<path fill-rule="evenodd" clip-rule="evenodd" d="M29.3458 41.4209C38.1824 41.4209 45.3458 34.2575 45.3458 25.4209C45.3458 16.5843 38.1824 9.4209 29.3458 9.4209C20.5093 9.4209 13.3458 16.5843 13.3458 25.4209C13.3458 34.2575 20.5093 41.4209 29.3458 41.4209ZM29.346 37.569C36.0552 37.569 41.4941 32.1301 41.4941 25.4209C41.4941 18.7117 36.0552 13.2728 29.346 13.2728C22.6367 13.2728 17.1978 18.7117 17.1978 25.4209C17.1978 32.1301 22.6367 37.569 29.346 37.569Z" fill="#6C7E92"/>
</mask>
<g mask="url(#mask0_239_1074)">
<g filter="url(#filter1_f_239_1074)">
<ellipse cx="19.5658" cy="14.8797" rx="3.65432" ry="7.40741" transform="rotate(42.5525 19.5658 14.8797)" fill="#F0F2F7"/>
</g>
<g filter="url(#filter2_f_239_1074)">
<ellipse cx="39.6712" cy="14.8799" rx="3.65432" ry="7.40741" transform="rotate(150 39.6712 14.8799)" fill="#F0F2F7"/>
</g>
<g filter="url(#filter3_f_239_1074)">
<ellipse cx="38.2542" cy="36.3046" rx="3.65432" ry="7.40741" transform="rotate(-135 38.2542 36.3046)" fill="#F0F2F7"/>
</g>
<g filter="url(#filter4_f_239_1074)">
<ellipse cx="19.6863" cy="34.9219" rx="3.65432" ry="7.40741" transform="rotate(-45 19.6863 34.9219)" fill="#889BAF"/>
</g>
</g>
<circle cx="29.3458" cy="25.4211" r="12.1481" fill="url(#paint2_linear_239_1074)"/>
<circle cx="29.3458" cy="25.4211" r="11.9012" stroke="url(#paint3_linear_239_1074)" stroke-width="0.493827"/>
<path fill-rule="evenodd" clip-rule="evenodd" d="M29.3459 38.4579C36.546 38.4579 42.3829 32.621 42.3829 25.4208C42.3829 18.2207 36.546 12.3838 29.3459 12.3838C22.1457 12.3838 16.3088 18.2207 16.3088 25.4208C16.3088 32.621 22.1457 38.4579 29.3459 38.4579ZM29.3461 37.569C36.0553 37.569 41.4942 32.1301 41.4942 25.4209C41.4942 18.7117 36.0553 13.2728 29.3461 13.2728C22.6368 13.2728 17.1979 18.7117 17.1979 25.4209C17.1979 32.1301 22.6368 37.569 29.3461 37.569Z" fill="url(#paint4_linear_239_1074)"/>
<path d="M32.4066 31.218C32.2405 31.2178 32.0771 31.1768 31.9306 31.0985L29.4338 29.7869C29.4006 29.7694 29.3637 29.7603 29.3261 29.7603C29.2886 29.7603 29.2517 29.7694 29.2185 29.7869L26.7217 31.0985C26.5752 31.1768 26.4117 31.2178 26.2456 31.218C26.0967 31.2175 25.9497 31.1846 25.8148 31.1216C25.68 31.0585 25.5604 30.9669 25.4645 30.853C25.3687 30.739 25.2988 30.6056 25.2597 30.4619C25.2206 30.3182 25.2133 30.1678 25.2382 30.021L25.7153 27.2417C25.7217 27.2046 25.7189 27.1665 25.7072 27.1307C25.6955 27.0949 25.6752 27.0625 25.6481 27.0363L23.6293 25.0679C23.493 24.9347 23.3965 24.766 23.3509 24.5808C23.3053 24.3957 23.3123 24.2015 23.3711 24.0202C23.43 23.8388 23.5383 23.6775 23.6839 23.5545C23.8295 23.4314 24.0067 23.3515 24.1953 23.3237L26.9864 22.9188C27.0236 22.9131 27.059 22.8986 27.0894 22.8765C27.1198 22.8543 27.1445 22.8251 27.1612 22.7913L28.4096 20.262C28.494 20.091 28.6246 19.947 28.7866 19.8464C28.9486 19.7457 29.1354 19.6924 29.3261 19.6924C29.5168 19.6924 29.7037 19.7457 29.8657 19.8464C30.0277 19.947 30.1582 20.091 30.2427 20.262L31.4911 22.7913C31.5078 22.8251 31.5325 22.8543 31.5629 22.8765C31.5933 22.8986 31.6287 22.9131 31.6659 22.9188L34.457 23.3237C34.6456 23.3515 34.8227 23.4314 34.9684 23.5545C35.114 23.6775 35.2223 23.8388 35.2812 24.0202C35.34 24.2015 35.347 24.3957 35.3014 24.5808C35.2558 24.766 35.1593 24.9347 35.0229 25.0679L33.0042 27.0363C32.9771 27.0625 32.9568 27.0949 32.9451 27.1307C32.9334 27.1665 32.9306 27.2046 32.937 27.2417L33.414 30.021C33.439 30.1678 33.4317 30.3182 33.3926 30.4619C33.3535 30.6056 33.2836 30.739 33.1877 30.853C33.0919 30.9669 32.9723 31.0585 32.8374 31.1216C32.7025 31.1846 32.5555 31.2175 32.4066 31.218Z" fill="#053A4C"/>
<path d="M29.8887 20.4374L31.1371 22.9668C31.1822 23.0578 31.2488 23.1365 31.331 23.1962C31.4132 23.2558 31.5087 23.2947 31.6092 23.3095L34.4003 23.7154C34.5161 23.7323 34.6248 23.7811 34.7143 23.8566C34.8038 23.932 34.8703 24.0309 34.9065 24.1422C34.9427 24.2535 34.947 24.3727 34.919 24.4863C34.8909 24.5999 34.8317 24.7034 34.7479 24.785L32.7282 26.7534C32.6555 26.8245 32.6011 26.9121 32.5698 27.0088C32.5385 27.1055 32.5312 27.2083 32.5484 27.3085L33.0245 30.0888C33.0445 30.2041 33.0318 30.3228 32.9878 30.4313C32.9438 30.5398 32.8703 30.6338 32.7756 30.7026C32.6808 30.7714 32.5687 30.8122 32.4519 30.8205C32.3351 30.8288 32.2184 30.8042 32.1149 30.7495L29.623 29.4379C29.5329 29.3902 29.4326 29.3653 29.3307 29.3653C29.2287 29.3653 29.1284 29.3902 29.0383 29.4379L26.5386 30.7495C26.4351 30.8042 26.3183 30.8288 26.2015 30.8205C26.0847 30.8122 25.9726 30.7714 25.8779 30.7026C25.7831 30.6338 25.7096 30.5398 25.6656 30.4313C25.6216 30.3228 25.6089 30.2041 25.6289 30.0888L26.105 27.3085C26.1222 27.2083 26.1149 27.1055 26.0836 27.0088C26.0523 26.9121 25.9979 26.8245 25.9252 26.7534L23.9055 24.785C23.8217 24.7034 23.7625 24.5999 23.7344 24.4863C23.7064 24.3727 23.7107 24.2535 23.7469 24.1422C23.7831 24.0309 23.8496 23.932 23.9391 23.8566C24.0286 23.7811 24.1373 23.7323 24.2531 23.7154L27.0442 23.3095C27.1448 23.2947 27.2402 23.2558 27.3224 23.1962C27.4046 23.1365 27.4712 23.0578 27.5163 22.9668L28.7647 20.4374C28.8163 20.3324 28.8964 20.2439 28.9957 20.1821C29.095 20.1202 29.2097 20.0874 29.3267 20.0874C29.4437 20.0874 29.5584 20.1202 29.6577 20.1821C29.7571 20.2439 29.8371 20.3324 29.8887 20.4374Z" fill="url(#paint5_linear_239_1074)"/>
<path opacity="0.15" d="M41.889 15.495C41.1372 16.3948 40.4532 17.0895 39.619 17.8973C39.5572 17.9587 39.4954 18.02 39.4336 18.0814C39.3924 18.1223 39.3615 18.1529 39.3203 18.1938C39.1658 18.337 39.0113 18.4904 38.8466 18.6335C38.7848 18.6846 38.7333 18.7357 38.6715 18.7971C38.6303 18.8278 38.5891 18.8687 38.5582 18.8993C38.5067 18.9505 38.4552 18.9914 38.4037 19.0323C32.9245 23.8482 25.9623 26.7827 18.6087 27.3144C18.5366 27.3144 18.4748 27.3246 18.4027 27.3246C18.3512 27.3246 18.2997 27.3349 18.2482 27.3349C18.1658 27.3349 18.0937 27.3451 18.0113 27.3451C17.7436 27.3553 17.4758 27.3758 17.208 27.3758C17.1256 27.3758 17.0329 27.386 16.9505 27.386C16.7445 27.3962 16.5386 27.3962 16.3429 27.3962C15.3851 27.3962 14.4272 27.3655 13.4591 27.2837C13.387 26.6805 13.3458 26.0568 13.3458 25.433C13.3458 16.5885 20.5655 9.4209 29.464 9.4209C33.4704 9.4209 37.0424 10.9584 39.8643 13.3715C40.5956 13.9952 41.2711 14.7486 41.889 15.495Z" fill="url(#paint6_linear_239_1074)"/>
</g>
<defs>
<filter id="filter0_d_239_1074" x="0.400122" y="0.820898" width="57.8913" height="49.2" filterUnits="userSpaceOnUse" color-interpolation-filters="sRGB">
<feFlood flood-opacity="0" result="BackgroundImageFix"/>
<feColorMatrix in="SourceAlpha" type="matrix" values="0 0 0 0 0 0 0 0 0 0 0 0 0 0 0 0 0 0 127 0" result="hardAlpha"/>
<feOffset/>
<feGaussianBlur stdDeviation="4.3"/>
<feComposite in2="hardAlpha" operator="out"/>
<feColorMatrix type="matrix" values="0 0 0 0 0.688045 0 0 0 0 0.688045 0 0 0 0 0.753333 0 0 0 1 0"/>
<feBlend mode="normal" in2="BackgroundImageFix" result="effect1_dropShadow_239_1074"/>
<feBlend mode="normal" in="SourceGraphic" in2="effect1_dropShadow_239_1074" result="shape"/>
</filter>
<filter id="filter1_f_239_1074" x="8.05065" y="3.06102" width="23.0303" height="23.6377" filterUnits="userSpaceOnUse" color-interpolation-filters="sRGB">
<feFlood flood-opacity="0" result="BackgroundImageFix"/>
<feBlend mode="normal" in="SourceGraphic" in2="BackgroundImageFix" result="shape"/>
<feGaussianBlur stdDeviation="2.91358" result="effect1_foregroundBlur_239_1074"/>
</filter>
<filter id="filter2_f_239_1074" x="28.9723" y="2.38085" width="21.3979" height="24.9981" filterUnits="userSpaceOnUse" color-interpolation-filters="sRGB">
<feFlood flood-opacity="0" result="BackgroundImageFix"/>
<feBlend mode="normal" in="SourceGraphic" in2="BackgroundImageFix" result="shape"/>
<feGaussianBlur stdDeviation="2.91358" result="effect1_foregroundBlur_239_1074"/>
</filter>
<filter id="filter3_f_239_1074" x="26.5852" y="24.6357" width="23.338" height="23.3379" filterUnits="userSpaceOnUse" color-interpolation-filters="sRGB">
<feFlood flood-opacity="0" result="BackgroundImageFix"/>
<feBlend mode="normal" in="SourceGraphic" in2="BackgroundImageFix" result="shape"/>
<feGaussianBlur stdDeviation="2.91358" result="effect1_foregroundBlur_239_1074"/>
</filter>
<filter id="filter4_f_239_1074" x="8.01732" y="23.2529" width="23.338" height="23.3379" filterUnits="userSpaceOnUse" color-interpolation-filters="sRGB">
<feFlood flood-opacity="0" result="BackgroundImageFix"/>
<feBlend mode="normal" in="SourceGraphic" in2="BackgroundImageFix" result="shape"/>
<feGaussianBlur stdDeviation="2.91358" result="effect1_foregroundBlur_239_1074"/>
</filter>
<linearGradient id="paint0_linear_239_1074" x1="44.6545" y1="30.853" x2="44.6545" y2="41.1246" gradientUnits="userSpaceOnUse">
<stop stop-color="#636363"/>
<stop offset="1" stop-color="#E8E9EC"/>
</linearGradient>
<linearGradient id="paint1_linear_239_1074" x1="14.0372" y1="30.5566" x2="14.0372" y2="40.8282" gradientUnits="userSpaceOnUse">
<stop stop-color="#636363"/>
<stop offset="1" stop-color="#E8E9EC"/>
</linearGradient>
<linearGradient id="paint2_linear_239_1074" x1="29.3458" y1="13.2729" x2="29.3458" y2="37.5692" gradientUnits="userSpaceOnUse">
<stop stop-color="#2A99A4"/>
<stop offset="0.484375" stop-color="#10667B"/>
<stop offset="1" stop-color="#41748B"/>
</linearGradient>
<linearGradient id="paint3_linear_239_1074" x1="29.3458" y1="13.2729" x2="29.3458" y2="37.5692" gradientUnits="userSpaceOnUse">
<stop stop-color="#3F879B"/>
<stop offset="1" stop-color="#6797AC"/>
</linearGradient>
<linearGradient id="paint4_linear_239_1074" x1="29.3459" y1="12.3838" x2="29.3459" y2="38.4579" gradientUnits="userSpaceOnUse">
<stop stop-color="#3C4E56"/>
<stop offset="1" stop-color="#ADBED2"/>
</linearGradient>
<linearGradient id="paint5_linear_239_1074" x1="29.3267" y1="20.1915" x2="29.3267" y2="29.5347" gradientUnits="userSpaceOnUse">
<stop offset="0.08" stop-color="#C8D0E5"/>
<stop offset="0.23" stop-color="#FAFAFA"/>
<stop offset="0.39" stop-color="#C8D1E2"/>
<stop offset="0.59" stop-color="#566B7C"/>
<stop offset="1" stop-color="#A9B8CF"/>
</linearGradient>
<linearGradient id="paint6_linear_239_1074" x1="20.8879" y1="11.8875" x2="29.9264" y2="24.5388" gradientUnits="userSpaceOnUse">
<stop offset="0.5084" stop-color="white" stop-opacity="0"/>
<stop offset="1" stop-color="white"/>
</linearGradient>
</defs>
</svg>
