<svg width="120" height="121" viewBox="0 0 120 121" fill="none" xmlns="http://www.w3.org/2000/svg">
<path d="M53.8539 5.81283C57.3834 2.76188 62.6166 2.76188 66.1461 5.81283C68.6501 7.97729 72.1079 8.66511 75.2496 7.62363C79.678 6.15559 84.5129 8.15828 86.6061 12.3277C88.0912 15.2856 91.0226 17.2443 94.3237 17.4844C98.9768 17.8227 102.677 21.5232 103.016 26.1763C103.256 29.4774 105.214 32.4088 108.172 33.8939C112.342 35.9871 114.344 40.822 112.876 45.2504C111.835 48.3921 112.523 51.8499 114.687 54.3539C117.738 57.8834 117.738 63.1166 114.687 66.6461C112.523 69.1501 111.835 72.6079 112.876 75.7496C114.344 80.178 112.342 85.0129 108.172 87.1061C105.214 88.5912 103.256 91.5226 103.016 94.8237C102.677 99.4768 98.9768 103.177 94.3237 103.516C91.0226 103.756 88.0912 105.714 86.6061 108.672C84.5129 112.842 79.678 114.844 75.2496 113.376C72.1079 112.335 68.6501 113.023 66.1461 115.187C62.6166 118.238 57.3834 118.238 53.8539 115.187C51.3499 113.023 47.8921 112.335 44.7504 113.376C40.322 114.844 35.4871 112.842 33.3939 108.672C31.9088 105.714 28.9774 103.756 25.6763 103.516C21.0232 103.177 17.3227 99.4768 16.9844 94.8237C16.7443 91.5226 14.7856 88.5912 11.8277 87.1061C7.65828 85.0129 5.65559 80.178 7.12363 75.7496C8.16511 72.6079 7.47729 69.1501 5.31283 66.6461C2.26188 63.1166 2.26188 57.8834 5.31283 54.3539C7.47729 51.8499 8.16511 48.3921 7.12363 45.2504C5.65559 40.822 7.65828 35.9871 11.8277 33.8938C14.7856 32.4088 16.7443 29.4774 16.9844 26.1763C17.3227 21.5232 21.0232 17.8227 25.6763 17.4844C28.9774 17.2443 31.9088 15.2856 33.3938 12.3277C35.4871 8.15828 40.322 6.15559 44.7504 7.62362C47.8921 8.66511 51.3499 7.97729 53.8539 5.81283Z" fill="#FE9B24"/>
<g filter="url(#filter0_d_243_5699)">
<circle cx="59.9994" cy="60.4999" r="43.1156" fill="white"/>
</g>
<path d="M61.691 77.1462L58.9836 70.8833C61.5932 69.9373 63.9907 68.6815 66.2088 67.181L61.6747 77.1462M49.4424 61.3421L43.1794 58.651L53.1447 54.1168C51.6145 56.3617 50.3708 58.7889 49.4424 61.3421ZM75.5543 44.7877C75.5543 44.7877 79.012 52.8773 69.7644 62.1576C66.1762 65.6968 62.2945 67.866 58.7879 69.236C57.581 69.6927 56.2273 69.3991 55.3302 68.4858L51.8562 65.0118C50.9429 64.0984 50.6493 62.761 51.0897 61.5378C52.4597 58.0801 54.6289 54.1495 58.1681 50.5613C67.4484 41.3072 75.5543 44.7877 75.5543 44.7877ZM50.421 76.8364H48.1213L54.792 70.1494C55.2813 70.4919 55.8195 70.7365 56.374 70.8833L50.421 76.8364ZM43.4893 76.8364V74.5367L51.2691 66.7406L53.6014 69.0566L45.789 76.8364H43.4893ZM43.4893 72.2044V69.9047L49.4424 63.9516C49.5892 64.5225 49.8338 65.0607 50.1763 65.5337L43.4893 72.2044ZM66.323 50.7407C65.4579 50.7407 64.6282 51.0844 64.0165 51.6961C63.4047 52.3079 63.0611 53.1376 63.0611 54.0027C63.0611 54.8678 63.4047 55.6975 64.0165 56.3092C64.6282 56.921 65.4579 57.2646 66.323 57.2646C68.1334 57.2646 69.585 55.8131 69.585 54.0027C69.585 53.1376 69.2413 52.3079 68.6296 51.6961C68.0178 51.0844 67.1881 50.7407 66.323 50.7407Z" fill="#E8A320"/>
<defs>
<filter id="filter0_d_243_5699" x="14.4717" y="17.3843" width="91.0553" height="91.0553" filterUnits="userSpaceOnUse" color-interpolation-filters="sRGB">
<feFlood flood-opacity="0" result="BackgroundImageFix"/>
<feColorMatrix in="SourceAlpha" type="matrix" values="0 0 0 0 0 0 0 0 0 0 0 0 0 0 0 0 0 0 127 0" result="hardAlpha"/>
<feOffset dy="2.41206"/>
<feGaussianBlur stdDeviation="1.20603"/>
<feComposite in2="hardAlpha" operator="out"/>
<feColorMatrix type="matrix" values="0 0 0 0 0 0 0 0 0 0 0 0 0 0 0 0 0 0 0.25 0"/>
<feBlend mode="normal" in2="BackgroundImageFix" result="effect1_dropShadow_243_5699"/>
<feBlend mode="normal" in="SourceGraphic" in2="effect1_dropShadow_243_5699" result="shape"/>
</filter>
</defs>
</svg>
