<svg width="59" height="50" viewBox="0 0 59 50" fill="none" xmlns="http://www.w3.org/2000/svg">
<g filter="url(#filter0_d_278_679)">
<path d="M39.6172 37.1407C39.6172 37.1407 40.2098 37.998 42.0972 39.201C42.2384 39.2899 42.3866 39.3817 42.5426 39.4746C43.1352 39.8291 43.8315 40.2064 44.6542 40.5975L44.8518 35.5605C44.8518 35.5605 47.4197 35.758 49.6913 34.7704C49.4295 34.64 48.3016 34.0326 46.6799 32.7753C46.5347 32.6637 46.3836 32.5452 46.2315 32.4217C45.5145 31.8449 44.7155 31.1506 43.8611 30.3259C42.5802 32.4988 39.6172 37.1407 39.6172 37.1407Z" fill="url(#paint0_linear_278_679)"/>
<path d="M19.0741 36.8444C19.0741 36.8444 18.4815 37.7016 16.5941 38.9046C16.4528 38.9935 16.3047 39.0853 16.1486 39.1782C15.556 39.5328 14.8647 39.91 14.037 40.3011L13.8395 35.2641C13.8395 35.2641 11.2716 35.4616 9 34.474C9.26173 34.3436 10.3896 33.7362 12.0114 32.4789C12.1565 32.3673 12.3077 32.2488 12.4598 32.1253C13.1768 31.5486 13.9758 30.8542 14.8301 30.0295C16.1111 32.2024 19.0741 36.8444 19.0741 36.8444Z" fill="url(#paint1_linear_278_679)"/>
<path d="M19.0741 36.8444C19.0741 36.8444 18.4815 37.7016 16.5941 38.9046C16.4528 38.9935 16.3047 39.0853 16.1486 39.1782C15.556 39.5328 14.8647 39.91 14.037 40.3011L13.8395 35.2641C13.8395 35.2641 11.2716 35.4616 9 34.474C9.26173 34.3436 10.3896 33.7362 12.0114 32.4789C12.1565 32.3673 12.3077 32.2488 12.4598 32.1253C13.1768 31.5486 13.9758 30.8542 14.8301 30.0295C16.1111 32.2024 19.0741 36.8444 19.0741 36.8444Z" fill="url(#paint2_linear_278_679)"/>
<path fill-rule="evenodd" clip-rule="evenodd" d="M29.3457 40.8938C38.1823 40.8938 45.3457 33.7304 45.3457 24.8938C45.3457 16.0572 38.1823 8.8938 29.3457 8.8938C20.5091 8.8938 13.3457 16.0572 13.3457 24.8938C13.3457 33.7304 20.5091 40.8938 29.3457 40.8938ZM29.3454 37.0419C36.0547 37.0419 41.4936 31.603 41.4936 24.8938C41.4936 18.1845 36.0547 12.7456 29.3454 12.7456C22.6362 12.7456 17.1973 18.1845 17.1973 24.8938C17.1973 31.603 22.6362 37.0419 29.3454 37.0419Z" fill="#6C7E92"/>
<mask id="mask0_278_679" style="mask-type:alpha" maskUnits="userSpaceOnUse" x="13" y="8" width="33" height="33">
<path fill-rule="evenodd" clip-rule="evenodd" d="M29.3457 40.8938C38.1823 40.8938 45.3457 33.7304 45.3457 24.8938C45.3457 16.0572 38.1823 8.8938 29.3457 8.8938C20.5091 8.8938 13.3457 16.0572 13.3457 24.8938C13.3457 33.7304 20.5091 40.8938 29.3457 40.8938ZM29.3454 37.0419C36.0547 37.0419 41.4936 31.603 41.4936 24.8938C41.4936 18.1845 36.0547 12.7456 29.3454 12.7456C22.6362 12.7456 17.1973 18.1845 17.1973 24.8938C17.1973 31.603 22.6362 37.0419 29.3454 37.0419Z" fill="#6C7E92"/>
</mask>
<g mask="url(#mask0_278_679)">
<g filter="url(#filter1_f_278_679)">
<ellipse cx="19.5654" cy="14.3526" rx="3.65432" ry="7.40741" transform="rotate(42.5525 19.5654 14.3526)" fill="#F0F2F7"/>
</g>
<g filter="url(#filter2_f_278_679)">
<ellipse cx="39.6706" cy="14.3526" rx="3.65432" ry="7.40741" transform="rotate(150 39.6706 14.3526)" fill="#F0F2F7"/>
</g>
<g filter="url(#filter3_f_278_679)">
<ellipse cx="38.2544" cy="35.7773" rx="3.65432" ry="7.40741" transform="rotate(-135 38.2544 35.7773)" fill="#F0F2F7"/>
</g>
<g filter="url(#filter4_f_278_679)">
<ellipse cx="19.6861" cy="34.3946" rx="3.65432" ry="7.40741" transform="rotate(-45 19.6861 34.3946)" fill="#889BAF"/>
</g>
</g>
<circle cx="29.3454" cy="24.8938" r="12.1481" fill="url(#paint3_linear_278_679)"/>
<circle cx="29.3454" cy="24.8938" r="11.9012" stroke="url(#paint4_linear_278_679)" stroke-width="0.493827"/>
<path fill-rule="evenodd" clip-rule="evenodd" d="M29.3456 37.9308C36.5458 37.9308 42.3827 32.0939 42.3827 24.8937C42.3827 17.6936 36.5458 11.8567 29.3456 11.8567C22.1455 11.8567 16.3086 17.6936 16.3086 24.8937C16.3086 32.0939 22.1455 37.9308 29.3456 37.9308ZM29.3454 37.0419C36.0547 37.0419 41.4936 31.603 41.4936 24.8938C41.4936 18.1845 36.0547 12.7456 29.3454 12.7456C22.6362 12.7456 17.1973 18.1845 17.1973 24.8938C17.1973 31.603 22.6362 37.0419 29.3454 37.0419Z" fill="url(#paint5_linear_278_679)"/>
<path d="M32.4068 30.6909C32.2407 30.6907 32.0772 30.6497 31.9307 30.5714L29.4339 29.2598C29.4007 29.2423 29.3638 29.2332 29.3263 29.2332C29.2887 29.2332 29.2518 29.2423 29.2186 29.2598L26.7218 30.5714C26.5753 30.6497 26.4118 30.6907 26.2458 30.6909C26.0969 30.6904 25.9499 30.6575 25.815 30.5945C25.6801 30.5314 25.5605 30.4398 25.4647 30.3259C25.3688 30.2119 25.2989 30.0785 25.2598 29.9348C25.2207 29.7911 25.2134 29.6407 25.2384 29.4939L25.7154 26.7146C25.7218 26.6775 25.719 26.6394 25.7073 26.6036C25.6956 26.5678 25.6753 26.5354 25.6482 26.5092L23.6295 24.5408C23.4931 24.4076 23.3966 24.2389 23.351 24.0537C23.3054 23.8686 23.3124 23.6744 23.3712 23.4931C23.4301 23.3117 23.5384 23.1504 23.684 23.0274C23.8297 22.9043 24.0068 22.8244 24.1954 22.7966L26.9865 22.3917C27.0237 22.386 27.0591 22.3715 27.0895 22.3494C27.1199 22.3272 27.1446 22.298 27.1613 22.2642L28.4097 19.7349C28.4942 19.5639 28.6247 19.4199 28.7867 19.3193C28.9487 19.2186 29.1356 19.1653 29.3263 19.1653C29.517 19.1653 29.7038 19.2186 29.8658 19.3193C30.0278 19.4199 30.1584 19.5639 30.2428 19.7349L31.4912 22.2642C31.5079 22.298 31.5326 22.3272 31.563 22.3494C31.5934 22.3715 31.6288 22.386 31.666 22.3917L34.4571 22.7966C34.6458 22.8244 34.8229 22.9043 34.9685 23.0274C35.1141 23.1504 35.2224 23.3117 35.2813 23.4931C35.3401 23.6744 35.3471 23.8686 35.3015 24.0537C35.2559 24.2389 35.1594 24.4076 35.0231 24.5408L33.0043 26.5092C32.9772 26.5354 32.9569 26.5678 32.9452 26.6036C32.9335 26.6394 32.9307 26.6775 32.9371 26.7146L33.4142 29.4939C33.4391 29.6407 33.4318 29.7911 33.3927 29.9348C33.3536 30.0785 33.2837 30.2119 33.1879 30.3259C33.092 30.4398 32.9724 30.5314 32.8376 30.5945C32.7027 30.6575 32.5557 30.6904 32.4068 30.6909Z" fill="#053A4C"/>
<path d="M29.8883 19.9105L31.1367 22.4399C31.1819 22.5309 31.2484 22.6096 31.3306 22.6693C31.4128 22.729 31.5083 22.7679 31.6088 22.7826L34.3999 23.1886C34.5157 23.2054 34.6245 23.2543 34.7139 23.3297C34.8034 23.4051 34.87 23.5041 34.9061 23.6153C34.9423 23.7266 34.9466 23.8458 34.9186 23.9594C34.8906 24.073 34.8313 24.1765 34.7476 24.2582L32.7278 26.2266C32.6551 26.2976 32.6008 26.3853 32.5695 26.4819C32.5382 26.5786 32.5308 26.6815 32.5481 26.7816L33.0241 29.5619C33.0442 29.6772 33.0315 29.7959 32.9875 29.9044C32.9435 30.0129 32.8699 30.1069 32.7752 30.1757C32.6805 30.2445 32.5683 30.2854 32.4516 30.2937C32.3348 30.302 32.218 30.2774 32.1145 30.2226L29.6226 28.911C29.5326 28.8634 29.4322 28.8385 29.3303 28.8385C29.2284 28.8385 29.128 28.8634 29.0379 28.911L26.5382 30.2226C26.4347 30.2774 26.3179 30.302 26.2011 30.2937C26.0843 30.2854 25.9722 30.2445 25.8775 30.1757C25.7828 30.1069 25.7092 30.0129 25.6652 29.9044C25.6212 29.7959 25.6085 29.6772 25.6286 29.5619L26.1046 26.7816C26.1219 26.6815 26.1145 26.5786 26.0832 26.4819C26.0519 26.3853 25.9976 26.2976 25.9249 26.2266L23.9051 24.2582C23.8213 24.1765 23.7621 24.073 23.7341 23.9594C23.706 23.8458 23.7104 23.7266 23.7465 23.6153C23.7827 23.5041 23.8493 23.4051 23.9387 23.3297C24.0282 23.2543 24.137 23.2054 24.2528 23.1886L27.0439 22.7826C27.1444 22.7679 27.2398 22.729 27.322 22.6693C27.4043 22.6096 27.4708 22.5309 27.516 22.4399L28.7644 19.9105C28.816 19.8055 28.896 19.7171 28.9953 19.6552C29.0946 19.5933 29.2093 19.5605 29.3263 19.5605C29.4434 19.5605 29.558 19.5933 29.6574 19.6552C29.7567 19.7171 29.8367 19.8055 29.8883 19.9105Z" fill="url(#paint6_linear_278_679)"/>
<path opacity="0.15" d="M41.8889 14.9679C41.1371 15.8677 40.4531 16.5624 39.6189 17.3702C39.5571 17.4316 39.4953 17.4929 39.4335 17.5543C39.3923 17.5952 39.3614 17.6258 39.3202 17.6667C39.1657 17.8099 39.0112 17.9633 38.8464 18.1064C38.7846 18.1575 38.7331 18.2086 38.6713 18.27C38.6301 18.3007 38.589 18.3416 38.5581 18.3722C38.5066 18.4234 38.4551 18.4643 38.4036 18.5052C32.9244 23.3211 25.9622 26.2556 18.6086 26.7873C18.5365 26.7873 18.4747 26.7975 18.4026 26.7975C18.3511 26.7975 18.2996 26.8078 18.2481 26.8078C18.1657 26.8078 18.0936 26.818 18.0112 26.818C17.7434 26.8282 17.4757 26.8487 17.2079 26.8487C17.1255 26.8487 17.0328 26.8589 16.9504 26.8589C16.7444 26.8691 16.5384 26.8691 16.3428 26.8691C15.3849 26.8691 14.4271 26.8384 13.459 26.7566C13.3869 26.1534 13.3457 25.5297 13.3457 24.9059C13.3457 16.0614 20.5654 8.8938 29.4639 8.8938C33.4703 8.8938 37.0423 10.4313 39.8642 12.8444C40.5955 13.4681 41.271 14.2215 41.8889 14.9679Z" fill="url(#paint7_linear_278_679)"/>
</g>
<defs>
<filter id="filter0_d_278_679" x="0.4" y="0.293798" width="57.8914" height="49.2" filterUnits="userSpaceOnUse" color-interpolation-filters="sRGB">
<feFlood flood-opacity="0" result="BackgroundImageFix"/>
<feColorMatrix in="SourceAlpha" type="matrix" values="0 0 0 0 0 0 0 0 0 0 0 0 0 0 0 0 0 0 127 0" result="hardAlpha"/>
<feOffset/>
<feGaussianBlur stdDeviation="4.3"/>
<feComposite in2="hardAlpha" operator="out"/>
<feColorMatrix type="matrix" values="0 0 0 0 0.688045 0 0 0 0 0.688045 0 0 0 0 0.753333 0 0 0 1 0"/>
<feBlend mode="normal" in2="BackgroundImageFix" result="effect1_dropShadow_278_679"/>
<feBlend mode="normal" in="SourceGraphic" in2="effect1_dropShadow_278_679" result="shape"/>
</filter>
<filter id="filter1_f_278_679" x="8.04979" y="2.53368" width="23.0303" height="23.6377" filterUnits="userSpaceOnUse" color-interpolation-filters="sRGB">
<feFlood flood-opacity="0" result="BackgroundImageFix"/>
<feBlend mode="normal" in="SourceGraphic" in2="BackgroundImageFix" result="shape"/>
<feGaussianBlur stdDeviation="2.91358" result="effect1_foregroundBlur_278_679"/>
</filter>
<filter id="filter2_f_278_679" x="28.9717" y="1.8535" width="21.3975" height="24.9981" filterUnits="userSpaceOnUse" color-interpolation-filters="sRGB">
<feFlood flood-opacity="0" result="BackgroundImageFix"/>
<feBlend mode="normal" in="SourceGraphic" in2="BackgroundImageFix" result="shape"/>
<feGaussianBlur stdDeviation="2.91358" result="effect1_foregroundBlur_278_679"/>
</filter>
<filter id="filter3_f_278_679" x="26.5849" y="24.1084" width="23.3389" height="23.3379" filterUnits="userSpaceOnUse" color-interpolation-filters="sRGB">
<feFlood flood-opacity="0" result="BackgroundImageFix"/>
<feBlend mode="normal" in="SourceGraphic" in2="BackgroundImageFix" result="shape"/>
<feGaussianBlur stdDeviation="2.91358" result="effect1_foregroundBlur_278_679"/>
</filter>
<filter id="filter4_f_278_679" x="8.01757" y="22.7256" width="23.3379" height="23.3379" filterUnits="userSpaceOnUse" color-interpolation-filters="sRGB">
<feFlood flood-opacity="0" result="BackgroundImageFix"/>
<feBlend mode="normal" in="SourceGraphic" in2="BackgroundImageFix" result="shape"/>
<feGaussianBlur stdDeviation="2.91358" result="effect1_foregroundBlur_278_679"/>
</filter>
<linearGradient id="paint0_linear_278_679" x1="44.6542" y1="30.3259" x2="44.6542" y2="40.5975" gradientUnits="userSpaceOnUse">
<stop stop-color="#636363"/>
<stop offset="1" stop-color="#E8E9EC"/>
</linearGradient>
<linearGradient id="paint1_linear_278_679" x1="11.2094" y1="37.6295" x2="17.2074" y2="33.429" gradientUnits="userSpaceOnUse">
<stop offset="0.01" stop-color="#9D00FF"/>
<stop offset="0.41" stop-color="#7B00DB"/>
<stop offset="0.53" stop-color="#9825E4"/>
<stop offset="0.62" stop-color="#6800B5"/>
<stop offset="1" stop-color="#400071"/>
</linearGradient>
<linearGradient id="paint2_linear_278_679" x1="14.037" y1="30.0295" x2="14.037" y2="40.3011" gradientUnits="userSpaceOnUse">
<stop stop-color="#636363"/>
<stop offset="1" stop-color="#E8E9EC"/>
</linearGradient>
<linearGradient id="paint3_linear_278_679" x1="29.3454" y1="12.7456" x2="29.3454" y2="37.0419" gradientUnits="userSpaceOnUse">
<stop stop-color="#2A99A4"/>
<stop offset="0.484375" stop-color="#10667B"/>
<stop offset="1" stop-color="#184A61"/>
</linearGradient>
<linearGradient id="paint4_linear_278_679" x1="29.3454" y1="12.7456" x2="29.3454" y2="37.0419" gradientUnits="userSpaceOnUse">
<stop stop-color="#3F879B"/>
<stop offset="1" stop-color="#062C3C"/>
</linearGradient>
<linearGradient id="paint5_linear_278_679" x1="29.3456" y1="11.8567" x2="29.3456" y2="37.9308" gradientUnits="userSpaceOnUse">
<stop stop-color="#3C4E56"/>
<stop offset="1" stop-color="#ADBED2"/>
</linearGradient>
<linearGradient id="paint6_linear_278_679" x1="29.3263" y1="19.6646" x2="29.3263" y2="29.0078" gradientUnits="userSpaceOnUse">
<stop offset="0.08" stop-color="#C8D0E5"/>
<stop offset="0.23" stop-color="#FAFAFA"/>
<stop offset="0.39" stop-color="#C8D1E2"/>
<stop offset="0.59" stop-color="#566B7C"/>
<stop offset="1" stop-color="#A9B8CF"/>
</linearGradient>
<linearGradient id="paint7_linear_278_679" x1="20.8877" y1="11.3604" x2="29.9263" y2="24.0117" gradientUnits="userSpaceOnUse">
<stop offset="0.5084" stop-color="white" stop-opacity="0"/>
<stop offset="1" stop-color="white"/>
</linearGradient>
</defs>
</svg>
